<svg width="92" height="60" viewBox="0 0 92 60" fill="none" xmlns="http://www.w3.org/2000/svg">
<path d="M85.6998 25.4361L83.3691 15.6109C84.0063 15.4683 84.4845 14.8725 84.4845 14.1587V12.5746C84.4845 9.13506 81.8293 6.33693 78.5659 6.33693H67.9501V3.06935C67.9501 1.37684 66.6437 0 65.0377 0H10.9248C9.31884 0 8.01243 1.37684 8.01243 3.06935V30.0003C8.01243 30.8204 8.64331 31.4855 9.42167 31.4855C10.1999 31.4855 10.8309 30.8206 10.8309 30.0003V3.06935C10.8309 3.0147 10.8729 2.97042 10.9248 2.97042H65.0376C65.0894 2.97042 65.1314 3.0147 65.1314 3.06935V30.0007C65.1314 30.8208 65.7623 31.4859 66.5407 31.4859C67.3189 31.4859 67.9499 30.821 67.9499 30.0007V28.317H84.5734C84.5748 28.317 84.5759 28.3174 84.5771 28.3174C84.5785 28.3174 84.5797 28.3172 84.581 28.3172C86.6265 28.3187 88.3634 29.7337 88.96 31.6835H84.5781C83.8 31.6835 83.1689 32.3484 83.1689 33.1687V36.337C83.1689 38.903 85.1496 40.9905 87.5844 40.9905H89.1815V47.5251H85.4968C84.2863 43.8416 80.9639 41.1884 77.0624 41.1884C73.161 41.1884 69.8383 43.8416 68.6281 47.5251H67.9496V36.3368C67.9496 35.5167 67.3187 34.8516 66.5403 34.8516C65.7621 34.8516 65.1311 35.5165 65.1311 36.3368V47.5247H35.8937C34.6832 43.8413 31.3608 41.188 27.4593 41.188C23.5579 41.188 20.2352 43.8413 19.025 47.5247H10.9248C10.8729 47.5247 10.8309 47.4805 10.8309 47.4258V44.1584H16.9374C17.7156 44.1584 18.3466 43.4935 18.3466 42.6732C18.3466 41.8529 17.7158 41.188 16.9374 41.188H3.40924C2.63106 41.188 2 41.8529 2 42.6732C2 43.4935 2.63088 44.1584 3.40924 44.1584H8.01261V47.4258C8.01261 49.1183 9.31902 50.4952 10.925 50.4952H18.537C18.5367 50.5281 18.5345 50.5609 18.5345 50.5941C18.5345 55.7806 22.5383 60 27.4593 60C32.3803 60 36.3841 55.7806 36.3841 50.5941C36.3841 50.5607 36.382 50.5281 36.3816 50.4952H68.1401C68.1398 50.5281 68.1376 50.5609 68.1376 50.5941C68.1376 55.7806 72.1414 60 77.0624 60C81.9834 60 85.9872 55.7806 85.9872 50.5941C85.9872 50.5607 85.9851 50.5281 85.9847 50.4952H90.5908C91.3689 50.4952 92 49.8303 92 49.01V33.1684C92.0002 29.2572 89.262 26.0076 85.6998 25.4361ZM67.9501 9.30717H78.5659C80.2754 9.30717 81.6662 10.7729 81.6662 12.5746V12.6735H67.9501V9.30717ZM67.9501 25.3468V15.6437H80.4719L82.7736 25.3468H67.9501ZM27.4593 57.0301C24.0922 57.0301 21.3528 54.1433 21.3528 50.5945C21.3528 47.0457 24.0922 44.1588 27.4593 44.1588C30.8264 44.1588 33.5658 47.0457 33.5658 50.5945C33.5658 54.1433 30.8264 57.0301 27.4593 57.0301ZM77.0628 57.0301C73.6957 57.0301 70.9563 54.1433 70.9563 50.5945C70.9563 47.0457 73.6957 44.1588 77.0628 44.1588C80.4299 44.1588 83.1693 47.0457 83.1693 50.5945C83.1693 54.1433 80.4299 57.0301 77.0628 57.0301ZM89.1819 38.0201H87.5847C86.7041 38.0201 85.9876 37.265 85.9876 36.3368V34.6536H89.1817V38.0201H89.1819Z" fill="white"/>
<path d="M85.2905 25.8768L85.2133 25.5515L82.8826 15.7263L82.7657 15.2336L83.2599 15.123C83.6571 15.0341 83.9845 14.6506 83.9845 14.1587V12.5746C83.9845 9.38615 81.5287 6.83693 78.5659 6.83693H67.9501H67.4501V6.33693V3.06935C67.4501 1.62792 66.3431 0.5 65.0377 0.5H10.9248C9.6194 0.5 8.51243 1.62792 8.51243 3.06935V30.0003C8.51243 30.5694 8.94391 30.9855 9.42167 30.9855C9.89934 30.9855 10.3309 30.5695 10.3309 30.0003V3.06935C10.3309 2.76361 10.5724 2.47042 10.9248 2.47042H65.0376C65.39 2.47042 65.6314 2.76363 65.6314 3.06935V30.0007C65.6314 30.5697 66.0629 30.9859 66.5407 30.9859C67.0183 30.9859 67.4499 30.5699 67.4499 30.0007V28.317V27.817H67.9499H84.5734L85.2905 25.8768ZM85.2905 25.8768L85.6206 25.9298M85.2905 25.8768L85.6206 25.9298M85.6206 25.9298C88.9256 26.46 91.5002 29.4875 91.5 33.1684V49.01C91.5 49.5792 91.0684 49.9952 90.5908 49.9952H85.9847H85.4793L85.4848 50.5006C85.4849 50.5146 85.4853 50.5284 85.4857 50.5403C85.4859 50.5487 85.4862 50.5561 85.4864 50.5619C85.487 50.5783 85.4872 50.587 85.4872 50.5941C85.4872 55.5295 81.6829 59.5 77.0624 59.5C72.442 59.5 68.6376 55.5295 68.6376 50.5941C68.6376 50.5871 68.6379 50.5784 68.6384 50.5619L68.6389 50.5474C68.6394 50.5341 68.6399 50.5174 68.6401 50.5005L68.6455 49.9952H68.1401H36.3816H35.8763L35.8817 50.5005C35.8819 50.522 35.8827 50.5432 35.8832 50.5574L35.8833 50.5619C35.8835 50.5687 35.8837 50.5742 35.8839 50.5788C35.884 50.5853 35.8841 50.59 35.8841 50.5941C35.8841 55.5295 32.0798 59.5 27.4593 59.5C22.8389 59.5 19.0345 55.5295 19.0345 50.5941C19.0345 50.5871 19.0348 50.5785 19.0353 50.5619C19.0358 50.5478 19.0367 50.5244 19.037 50.5005L19.0424 49.9952H18.537H10.925C9.61957 49.9952 8.51261 48.8673 8.51261 47.4258V44.1584V43.6584H8.01261H3.40924C2.93144 43.6584 2.5 43.2425 2.5 42.6732C2.5 42.104 2.93157 41.688 3.40924 41.688H16.9374C17.4152 41.688 17.8466 42.104 17.8466 42.6732C17.8466 43.2424 17.4151 43.6584 16.9374 43.6584H10.8309H10.3309V44.1584V47.4258C10.3309 47.7315 10.5724 48.0247 10.9248 48.0247H19.025H19.387L19.5 47.6808C20.6497 44.1817 23.795 41.688 27.4593 41.688C31.1237 41.688 34.2688 44.1817 35.4187 47.6808L35.5317 48.0247H35.8937H65.1311H65.6311V47.5247V36.3368C65.6311 35.7676 66.0627 35.3516 66.5403 35.3516C67.0181 35.3516 67.4496 35.7677 67.4496 36.3368V47.5251V48.0251H67.9496H68.6281H68.9901L69.1031 47.6812C70.2528 44.1821 73.3981 41.6884 77.0624 41.6884C80.7268 41.6884 83.8719 44.1821 85.0218 47.6812L85.1348 48.0251H85.4968H89.1815H89.6815V47.5251V40.9905V40.4905H89.1815H87.5844C85.4502 40.4905 83.6689 38.6519 83.6689 36.337V33.1687C83.6689 32.5995 84.1005 32.1835 84.5781 32.1835H88.96H89.6359L89.4381 31.5372C88.7843 29.4004 86.8713 27.8216 84.5873 27.8172L85.6206 25.9298ZM67.9501 8.80717H67.4501V9.30717V12.6735V13.1735H67.9501H81.6662H82.1662V12.6735V12.5746C82.1662 10.5218 80.5759 8.80717 78.5659 8.80717H67.9501ZM67.4501 25.3468V25.8468H67.9501H82.7736H83.4061L83.2601 25.2314L80.9584 15.5283L80.8672 15.1437H80.4719H67.9501H67.4501V15.6437V25.3468ZM85.9876 34.1536H85.4876V34.6536V36.3368C85.4876 37.5161 86.4035 38.5201 87.5847 38.5201H88.6817H89.1817H89.1819V38.0201H89.6817V34.6536V34.1536H89.1817H85.9876ZM20.8528 50.5945C20.8528 54.3944 23.7917 57.5301 27.4593 57.5301C31.127 57.5301 34.0658 54.3944 34.0658 50.5945C34.0658 46.7946 31.127 43.6588 27.4593 43.6588C23.7917 43.6588 20.8528 46.7946 20.8528 50.5945ZM70.4563 50.5945C70.4563 54.3944 73.3951 57.5301 77.0628 57.5301C80.7304 57.5301 83.6693 54.3944 83.6693 50.5945C83.6693 46.7946 80.7304 43.6588 77.0628 43.6588C73.3951 43.6588 70.4563 46.7946 70.4563 50.5945Z" stroke="white" stroke-opacity="0.1"/>
<path d="M27.5 48C26.1214 48 25 49.1214 25 50.5C25 51.8786 26.1214 53 27.5 53C28.8786 53 30 51.8786 30 50.5C30 49.1214 28.8786 48 27.5 48Z" fill="white"/>
<path d="M25.5 50.5C25.5 49.3976 26.3976 48.5 27.5 48.5C28.6024 48.5 29.5 49.3976 29.5 50.5C29.5 51.6024 28.6024 52.5 27.5 52.5C26.3976 52.5 25.5 51.6024 25.5 50.5Z" stroke="white" stroke-opacity="0.1"/>
<path d="M77.1035 48C75.725 48 74.6035 49.1214 74.6035 50.5C74.6035 51.8786 75.725 53 77.1035 53C78.4821 53 79.6035 51.8786 79.6035 50.5C79.6035 49.1214 78.4821 48 77.1035 48Z" fill="white"/>
<path d="M75.1035 50.5C75.1035 49.3976 76.0011 48.5 77.1035 48.5C78.2059 48.5 79.1035 49.3976 79.1035 50.5C79.1035 51.6024 78.2059 52.5 77.1035 52.5C76.0011 52.5 75.1035 51.6024 75.1035 50.5Z" stroke="white" stroke-opacity="0.1"/>
<path d="M34.4531 37H13.4092C12.6311 37 12 37.6788 12 38.5162C12 39.3536 12.6309 40.0324 13.4092 40.0324H34.4531C35.2313 40.0324 35.8624 39.3536 35.8624 38.5162C35.8624 37.6788 35.2315 37 34.4531 37Z" fill="white"/>
<path d="M13.4092 37.5H34.4531C34.9215 37.5 35.3624 37.9198 35.3624 38.5162C35.3624 39.1125 34.9214 39.5324 34.4531 39.5324H13.4092C12.9408 39.5324 12.5 39.1126 12.5 38.5162C12.5 37.9199 12.941 37.5 13.4092 37.5Z" stroke="white" stroke-opacity="0.1"/>
<path d="M19.4469 33H1.40924C0.631056 33 0 33.6788 0 34.5162C0 35.3536 0.63088 36.0324 1.40924 36.0324H19.4469C20.2251 36.0324 20.8561 35.3536 20.8561 34.5162C20.8561 33.6788 20.2251 33 19.4469 33Z" fill="white"/>
<path d="M1.40924 33.5H19.4469C19.9152 33.5 20.3561 33.9199 20.3561 34.5162C20.3561 35.1125 19.9152 35.5324 19.4469 35.5324H1.40924C0.940842 35.5324 0.5 35.1126 0.5 34.5162C0.5 33.9199 0.940979 33.5 1.40924 33.5Z" stroke="white" stroke-opacity="0.1"/>
<path d="M51.0027 14.999C50.4525 14.407 49.5601 14.407 49.0099 14.9992L36.4781 28.482L29.9588 21.468C29.4085 20.8758 28.5162 20.8758 27.966 21.468C27.4156 22.0601 27.4156 23.0199 27.966 23.6121L35.4817 31.6983C35.7568 31.9944 36.1175 32.1423 36.4781 32.1423C36.8386 32.1423 37.1995 31.9944 37.4744 31.6983L51.0025 17.1433C51.5529 16.5509 51.5529 15.5911 51.0027 14.999Z" fill="white"/>
<path d="M49.3761 15.3396L49.3762 15.3395C49.7286 14.9602 50.2841 14.9603 50.6365 15.3394C51.0083 15.7396 51.0084 16.4024 50.6363 16.8029C50.6363 16.8029 50.6363 16.8029 50.6363 16.8029L37.1081 31.3579L37.1079 31.3581C36.9276 31.5523 36.6995 31.6423 36.4781 31.6423C36.2567 31.6423 36.0287 31.5524 35.8481 31.358L35.848 31.3579L28.3322 23.2717C27.9602 22.8714 27.9602 22.2086 28.3322 21.8084L28.3323 21.8083C28.6847 21.4291 29.24 21.429 29.5926 21.8084L36.1118 28.8224L36.4781 29.2165L36.8443 28.8224L49.3761 15.3396Z" stroke="white" stroke-opacity="0.1"/>
</svg>
