<svg width="74" height="78" viewBox="0 0 74 78" fill="none" xmlns="http://www.w3.org/2000/svg">
<path d="M22.3146 13.5635C21.6898 13.5635 21.1831 14.1084 21.1831 14.7808C21.1831 16.2575 20.0664 17.459 18.6939 17.459C17.3214 17.459 16.2047 16.2575 16.2047 14.7808C16.2047 13.3041 17.3214 12.1027 18.6939 12.1027C19.3187 12.1027 19.8254 11.5577 19.8254 10.8853C19.8254 10.2129 19.3189 9.66797 18.6939 9.66797C16.0736 9.66797 13.9419 11.9616 13.9419 14.7807C13.9419 17.5997 16.0737 19.8934 18.6939 19.8934C21.3141 19.8934 23.4459 17.5997 23.4459 14.7807C23.4461 14.1084 22.9394 13.5635 22.3146 13.5635Z" fill="white"/>
<path d="M22.9459 14.7806V14.7807C22.9459 17.3587 21.0041 19.3934 18.6939 19.3934C16.3837 19.3934 14.4419 17.3587 14.4419 14.7807C14.4419 12.2027 16.3836 10.168 18.6939 10.168C19.0089 10.168 19.3254 10.454 19.3254 10.8853C19.3254 11.3166 19.0088 11.6027 18.6939 11.6027C17.0114 11.6027 15.7047 13.063 15.7047 14.7808C15.7047 16.4986 17.0114 17.959 18.6939 17.959C20.3764 17.959 21.6831 16.4986 21.6831 14.7808C21.6831 14.3495 21.9997 14.0635 22.3146 14.0635C22.6295 14.0635 22.946 14.3496 22.9459 14.7806Z" stroke="white" stroke-opacity="0.1"/>
<path d="M22.3146 27.8465C21.6898 27.8465 21.1831 28.3915 21.1831 29.0639C21.1831 30.5406 20.0664 31.742 18.6939 31.742C17.3214 31.742 16.2047 30.5406 16.2047 29.0639C16.2047 27.5872 17.3214 26.3858 18.6939 26.3858C19.3187 26.3858 19.8254 25.8408 19.8254 25.1684C19.8254 24.496 19.3189 23.951 18.6939 23.951C16.0736 23.951 13.9419 26.2447 13.9419 29.0638C13.9419 31.8828 16.0737 34.1765 18.6939 34.1765C21.3141 34.1765 23.4459 31.8828 23.4459 29.0638C23.4461 28.3917 22.9394 27.8465 22.3146 27.8465Z" fill="white"/>
<path d="M22.9459 29.0636V29.0638C22.9459 31.6417 21.0041 33.6765 18.6939 33.6765C16.3837 33.6765 14.4419 31.6417 14.4419 29.0638C14.4419 26.4858 16.3836 24.451 18.6939 24.451C19.0089 24.451 19.3254 24.7371 19.3254 25.1684C19.3254 25.5997 19.0088 25.8858 18.6939 25.8858C17.0114 25.8858 15.7047 27.3461 15.7047 29.0639C15.7047 30.7817 17.0114 32.242 18.6939 32.242C20.3764 32.242 21.6831 30.7817 21.6831 29.0639C21.6831 28.6326 21.9997 28.3465 22.3146 28.3465C22.6295 28.3465 22.946 28.6328 22.9459 29.0636Z" stroke="white" stroke-opacity="0.1"/>
<path d="M40.6865 31.3079H32.2384C31.6136 31.3079 31.1069 31.8529 31.1069 32.5253C31.1069 33.1976 31.6135 33.7426 32.2384 33.7426H40.6865C41.3113 33.7426 41.818 33.1976 41.818 32.5253C41.818 31.8529 41.3115 31.3079 40.6865 31.3079Z" fill="white"/>
<path d="M32.2384 31.8079H40.6865C41.0015 31.8079 41.318 32.094 41.318 32.5253C41.318 32.9565 41.0014 33.2426 40.6865 33.2426H32.2384C31.9234 33.2426 31.6069 32.9566 31.6069 32.5253C31.6069 32.094 31.9235 31.8079 32.2384 31.8079Z" stroke="white" stroke-opacity="0.1"/>
<path d="M40.6865 26.1139H32.2384C31.6136 26.1139 31.1069 26.6589 31.1069 27.3313C31.1069 28.0037 31.6135 28.5486 32.2384 28.5486H40.6865C41.3113 28.5486 41.818 28.0037 41.818 27.3313C41.818 26.6589 41.3115 26.1139 40.6865 26.1139Z" fill="white"/>
<path d="M32.2384 26.6139H40.6865C41.0015 26.6139 41.318 26.8999 41.318 27.3313C41.318 27.7626 41.0014 28.0486 40.6865 28.0486H32.2384C31.9234 28.0486 31.6069 27.7626 31.6069 27.3313C31.6069 26.9 31.9235 26.6139 32.2384 26.6139Z" stroke="white" stroke-opacity="0.1"/>
<path d="M38.2728 45.5909H32.2384C31.6136 45.5909 31.1069 46.1359 31.1069 46.8083C31.1069 47.4807 31.6135 48.0256 32.2384 48.0256H38.2728C38.8976 48.0256 39.4043 47.4807 39.4043 46.8083C39.4043 46.1359 38.8976 45.5909 38.2728 45.5909Z" fill="white"/>
<path d="M32.2384 46.0909H38.2728C38.5877 46.0909 38.9043 46.377 38.9043 46.8083C38.9043 47.2395 38.5877 47.5256 38.2728 47.5256H32.2384C31.9234 47.5256 31.6069 47.2396 31.6069 46.8083C31.6069 46.377 31.9235 46.0909 32.2384 46.0909Z" stroke="white" stroke-opacity="0.1"/>
<path d="M40.6865 40.3972H32.2384C31.6136 40.3972 31.1069 40.9421 31.1069 41.6145C31.1069 42.2869 31.6135 42.8318 32.2384 42.8318H40.6865C41.3113 42.8318 41.818 42.2869 41.818 41.6145C41.818 40.9421 41.3115 40.3972 40.6865 40.3972Z" fill="white"/>
<path d="M32.2384 40.8972H40.6865C41.0015 40.8972 41.318 41.1832 41.318 41.6145C41.318 42.0458 41.0014 42.3318 40.6865 42.3318H32.2384C31.9234 42.3318 31.6069 42.0458 31.6069 41.6145C31.6069 41.1832 31.9235 40.8972 32.2384 40.8972Z" stroke="white" stroke-opacity="0.1"/>
<path d="M51.5483 17.0247H32.2384C31.6136 17.0247 31.1069 17.5696 31.1069 18.242C31.1069 18.9144 31.6135 19.4594 32.2384 19.4594H51.5482C52.173 19.4594 52.6797 18.9144 52.6797 18.242C52.6797 17.5696 52.1732 17.0247 51.5483 17.0247Z" fill="white"/>
<path d="M32.2384 17.5247H51.5483C51.8631 17.5247 52.1797 17.8107 52.1797 18.242C52.1797 18.6733 51.8631 18.9594 51.5482 18.9594H32.2384C31.9234 18.9594 31.6069 18.6734 31.6069 18.242C31.6069 17.8107 31.9235 17.5247 32.2384 17.5247Z" stroke="white" stroke-opacity="0.1"/>
<path d="M46.7208 11.8307H32.2384C31.6136 11.8307 31.1069 12.3757 31.1069 13.0481C31.1069 13.7205 31.6135 14.2655 32.2384 14.2655H46.7208C47.3456 14.2655 47.8523 13.7205 47.8523 13.0481C47.8523 12.3757 47.3458 11.8307 46.7208 11.8307Z" fill="white"/>
<path d="M32.2384 12.3307H46.7208C47.0358 12.3307 47.3523 12.6168 47.3523 13.0481C47.3523 13.4794 47.0357 13.7655 46.7208 13.7655H32.2384C31.9234 13.7655 31.6069 13.4795 31.6069 13.0481C31.6069 12.6168 31.9235 12.3307 32.2384 12.3307Z" stroke="white" stroke-opacity="0.1"/>
<path d="M22.3146 42.1297C21.6898 42.1297 21.1831 42.6747 21.1831 43.3471C21.1831 44.8238 20.0664 46.0252 18.6939 46.0252C17.3214 46.0252 16.2047 44.8238 16.2047 43.3471C16.2047 41.8704 17.3214 40.6689 18.6939 40.6689C19.3187 40.6689 19.8254 40.1239 19.8254 39.4516C19.8254 38.7792 19.3189 38.2342 18.6939 38.2342C16.0736 38.2342 13.9419 40.5279 13.9419 43.3469C13.9419 46.166 16.0737 48.4597 18.6939 48.4597C21.3141 48.4597 23.4459 46.166 23.4459 43.3469C23.4461 42.6747 22.9394 42.1297 22.3146 42.1297Z" fill="white"/>
<path d="M22.9459 43.3468V43.3469C22.9459 45.9249 21.0041 47.9597 18.6939 47.9597C16.3837 47.9597 14.4419 45.9249 14.4419 43.3469C14.4419 40.7689 16.3836 38.7342 18.6939 38.7342C19.0089 38.7342 19.3254 39.0202 19.3254 39.4516C19.3254 39.8828 19.0088 40.1689 18.6939 40.1689C17.0114 40.1689 15.7047 41.6293 15.7047 43.3471C15.7047 45.0649 17.0114 46.5252 18.6939 46.5252C20.3764 46.5252 21.6831 45.0649 21.6831 43.3471C21.6831 42.9158 21.9997 42.6297 22.3146 42.6297C22.6295 42.6297 22.946 42.9158 22.9459 43.3468Z" stroke="white" stroke-opacity="0.1"/>
<path d="M58.487 0H4.65125C2.08667 0 0 1.71101 0 3.81425V58.3499C0 60.4531 2.08648 62.1641 4.65125 62.1641H31.5692C32.389 62.1641 33.0537 61.6191 33.0537 60.9468C33.0537 60.2745 32.3891 59.7294 31.5692 59.7294H4.65125C3.72356 59.7294 2.96881 59.1105 2.96881 58.3497V3.81425C2.96881 3.0535 3.72356 2.43457 4.65125 2.43457H58.487C59.4147 2.43457 60.1694 3.0535 60.1694 3.81425V44.067C60.1694 44.7392 60.834 45.2843 61.6539 45.2843C62.4737 45.2843 63.1384 44.7393 63.1384 44.067V3.81425C63.1382 1.71101 61.0518 0 58.487 0Z" fill="white"/>
<path d="M4.65125 0.5H58.487C60.8729 0.5 62.6383 2.07534 62.6384 3.81425V44.067C62.6384 44.375 62.2949 44.7843 61.6539 44.7843C61.0128 44.7843 60.6694 44.3749 60.6694 44.067V3.81425C60.6694 2.68916 59.5935 1.93457 58.487 1.93457H4.65125C3.54475 1.93457 2.46881 2.68916 2.46881 3.81425V58.3497C2.46881 59.4748 3.54475 60.2294 4.65125 60.2294H31.5692C32.2103 60.2294 32.5537 60.6388 32.5537 60.9468C32.5537 61.2548 32.2102 61.6641 31.5692 61.6641H4.65125C2.26528 61.6641 0.5 60.0888 0.5 58.3499V3.81425C0.5 2.07536 2.26545 0.5 4.65125 0.5Z" stroke="white" stroke-opacity="0.1"/>
<path d="M70.2756 49.3646C69.224 49.2518 68.1729 49.5725 67.3411 50.252C66.6785 49.0558 65.5485 48.2071 64.2412 48.0662C63.1893 47.9535 62.1384 48.2742 61.3067 48.9536C60.6441 47.7573 59.5142 46.9086 58.2068 46.7677C57.4038 46.6815 56.6019 46.8479 55.8972 47.2338V31.7314C55.8972 30.4727 55.3995 29.2661 54.5314 28.4211C53.6641 27.5768 52.4954 27.1647 51.3247 27.2907C49.236 27.5158 47.6 29.5476 47.6 31.9166V47.4582L44.274 51.0366C42.5066 52.9382 41.7931 55.6362 42.3657 58.2541L44.8908 69.8001C45.9139 74.4786 49.7483 77.7461 54.2155 77.7461H64.4206C69.7027 77.7461 74.0001 73.1226 74.0001 67.4395V53.9908C74.0003 51.6215 72.3642 49.5897 70.2756 49.3646ZM71.7373 67.4392C71.7373 71.7797 68.4551 75.3111 64.4207 75.3111H54.2157C50.8037 75.3111 47.8749 72.8155 47.0935 69.242L44.5684 57.696C44.1766 55.905 44.6648 54.0588 45.8741 52.7578L47.6 50.9009V55.1037C47.6 55.7759 48.1065 56.3211 48.7315 56.3211C49.3564 56.3211 49.8629 55.7761 49.8629 55.1037V31.9165C49.8629 30.7829 50.604 29.8151 51.5504 29.7133C52.0939 29.6545 52.6137 29.8371 53.0134 30.2264C53.4081 30.6107 53.6345 31.1594 53.6345 31.7315V53.1562C53.6345 53.8285 54.141 54.3736 54.766 54.3736C55.3909 54.3736 55.8975 53.8286 55.8975 53.1562V51.2085C55.8975 50.6363 56.1237 50.0877 56.5186 49.7034C56.9186 49.3141 57.4381 49.1314 57.9816 49.1903C58.9278 49.2922 59.669 50.2601 59.669 51.3936V54.4544C59.669 55.1266 60.1755 55.6718 60.8005 55.6718C61.4253 55.6718 61.932 55.1268 61.932 54.4544V52.5066C61.932 51.9345 62.1582 51.3859 62.5531 51.0015C62.9531 50.6122 63.4727 50.4297 64.0161 50.4884C64.9623 50.5903 65.7035 51.5582 65.7035 52.6917V55.7527C65.7035 56.4249 66.21 56.97 66.835 56.97C67.4598 56.97 67.9665 56.4251 67.9665 55.7527V53.8049C67.9665 53.2328 68.1927 52.6842 68.5876 52.2998C68.9876 51.9106 69.5068 51.7278 70.0506 51.7869C70.9968 51.8886 71.738 52.8565 71.738 53.99V67.4392H71.7373Z" fill="white"/>
<path d="M67.1938 51.018L66.9037 50.4943C66.3064 49.4159 65.3073 48.6841 64.188 48.5633C63.2727 48.4653 62.3541 48.7436 61.623 49.3408L61.1594 49.7195L60.8693 49.1958C60.272 48.1174 59.2729 47.3856 58.1534 47.2649C57.4544 47.1898 56.7546 47.3343 56.1373 47.6723L55.3972 48.0776V47.2338V31.7314C55.3972 30.6017 54.9499 29.5262 54.1826 28.7794L54.1826 28.7794C53.4186 28.0356 52.3961 27.6783 51.3782 27.7879L67.1938 51.018ZM67.1938 51.018L67.6574 50.6392M67.1938 51.018L67.6574 50.6392M67.6574 50.6392C68.3886 50.0419 69.3072 49.7637 70.222 49.8617C72.0102 50.0544 73.5002 51.8273 73.5001 53.9908V67.4395C73.5001 72.8816 69.3927 77.2461 64.4206 77.2461H54.2155C50.0069 77.2461 46.3573 74.1661 45.3792 69.6933L44.8908 69.8001L45.3792 69.6933L42.8542 58.1472L42.3657 58.2541L42.8542 58.1472C42.3153 55.6834 42.9886 53.154 44.6402 51.377L47.9662 47.7986L48.1 47.6547M67.6574 50.6392L48.1 47.6547M48.1 47.6547V47.4582M48.1 47.6547V47.4582M48.1 47.4582V31.9166C48.1 29.7534 49.59 27.9806 51.3782 27.7879L48.1 47.4582ZM48.1 49.6285V50.9009V55.1037C48.1 55.5349 48.4165 55.8211 48.7315 55.8211C49.0465 55.8211 49.3629 55.535 49.3629 55.1037V31.9165C49.3629 30.6007 50.2298 29.3526 51.4966 29.2162L48.1 49.6285ZM48.1 49.6285L47.2337 50.5605M48.1 49.6285L47.2337 50.5605M47.2337 50.5605L45.5078 52.4174C44.1828 53.843 43.6545 55.8578 44.08 57.8028C44.08 57.8029 44.08 57.8029 44.08 57.8029L46.605 69.3489C47.4315 73.128 50.5452 75.8111 54.2157 75.8111H64.4207C68.6059 75.8111 71.9818 72.2933 72.2235 67.9392H72.238V67.4392V53.99C72.238 52.6742 71.3708 51.426 70.1041 51.2898C69.408 51.2143 68.7425 51.4515 68.2389 51.9415L68.2389 51.9415L47.2337 50.5605ZM54.1345 31.7315C54.1345 31.0303 53.8577 30.3507 53.3622 29.8682L64.0161 50.4884L64.0699 49.9913C64.0698 49.9913 64.0697 49.9913 64.0696 49.9913C63.3743 49.9162 62.7082 50.1528 62.2044 50.6432C61.7086 51.1258 61.432 51.8055 61.432 52.5066V54.4544C61.432 54.8857 61.1154 55.1718 60.8005 55.1718C60.4855 55.1718 60.169 54.8856 60.169 54.4544V51.3936C60.169 50.0777 59.3018 48.8296 58.0351 48.6932C57.3395 48.6179 56.6736 48.8547 56.1699 49.3451C55.6741 49.8276 55.3975 50.5073 55.3975 51.2085V53.1562C55.3975 53.5876 55.081 53.8736 54.766 53.8736C54.451 53.8736 54.1345 53.5875 54.1345 53.1562V31.7315ZM53.3621 29.8682C52.8585 29.3776 52.1922 29.1411 51.4969 29.2162L53.3621 29.8682Z" stroke="white" stroke-opacity="0.1"/>
</svg>
