<svg width="64" height="64" viewBox="0 0 64 64" fill="none" xmlns="http://www.w3.org/2000/svg">
<path d="M63.2242 35.1929C62.8667 33.9138 62.53 32.7047 62.53 31.6014C62.53 30.4981 62.8667 29.289 63.2242 28.0098C63.7932 25.9736 64.3803 23.8673 63.6777 21.8201C62.9487 19.6904 61.1318 18.2986 59.3748 16.9548C58.3216 16.1483 57.3269 15.3871 56.6814 14.549C56.0248 13.6944 55.5601 12.554 55.0704 11.3463C54.2621 9.36225 53.4274 7.30954 51.5576 6.02075C49.7185 4.7512 47.423 4.62891 45.2068 4.51213C43.824 4.43931 42.5162 4.36923 41.4214 4.03261C40.3975 3.71797 39.3374 3.06533 38.2161 2.37423C36.4117 1.26131 34.3652 0 31.9988 0C29.6324 0 27.5859 1.26131 25.7816 2.3756C24.6602 3.06671 23.6029 3.72072 22.5776 4.03399C21.4814 4.37061 20.1736 4.44068 18.7908 4.5135C16.5732 4.63166 14.2805 4.75257 12.44 6.02212C10.5702 7.31091 9.7355 9.36225 8.92722 11.3463C8.43473 12.554 7.97008 13.6958 7.31343 14.5504C6.66792 15.3912 5.67321 16.1524 4.62008 16.9603C2.86439 18.3054 1.05027 19.6945 0.321281 21.8214C-0.381273 23.87 0.205812 25.975 0.77342 28.0126C1.13096 29.2917 1.46763 30.4995 1.46763 31.6028C1.46763 32.7061 1.13096 33.9151 0.77342 35.1943C0.205812 37.2305 -0.381273 39.3368 0.321281 41.3868C1.05027 43.5137 2.86578 44.9056 4.62147 46.2493C5.6746 47.0545 6.66931 47.817 7.31343 48.6551C7.97147 49.5097 8.43613 50.6501 8.92722 51.8592C9.7355 53.8433 10.5716 55.896 12.4428 57.1875C14.2805 58.4543 16.5746 58.5752 18.7908 58.692C20.1736 58.7648 21.4814 58.8349 22.5762 59.1715C23.6002 59.4862 24.6589 60.1388 25.7788 60.8285C27.5845 61.9401 29.631 63.2028 31.9988 63.2028C34.3666 63.2028 36.4145 61.9401 38.2216 60.8272C39.3415 60.1374 40.3988 59.4848 41.4242 59.1701C42.519 58.8335 43.8268 58.7635 45.2096 58.6906C47.4272 58.5738 49.7199 58.4529 51.5576 57.1861C53.4316 55.8946 54.2663 53.8391 55.0746 51.8537C55.5657 50.6474 56.0289 49.507 56.6828 48.6551C57.3283 47.817 58.323 47.0545 59.3761 46.2493C61.1332 44.9042 62.9487 43.5137 63.6791 41.3854C64.3817 39.3355 63.7932 37.2305 63.2242 35.1929ZM61.0426 40.5047C60.5821 41.8485 59.1673 42.9312 57.6704 44.0771C56.5226 44.9564 55.3345 45.866 54.4664 46.9926C53.5858 48.1413 53.0293 49.507 52.4909 50.8301C51.8051 52.5174 51.1568 54.1098 49.9645 54.9314C48.7765 55.7503 46.9721 55.8451 45.0606 55.9454C43.5678 56.0237 42.0222 56.1048 40.5948 56.5445C39.2301 56.9663 37.9669 57.7426 36.7468 58.4955C35.1121 59.504 33.5693 60.4548 31.9986 60.4548C30.428 60.4548 28.8865 59.504 27.2519 58.4955C26.0332 57.744 24.7714 56.9663 23.4052 56.5445C21.9778 56.1062 20.4322 56.0237 18.9395 55.9454C17.028 55.8451 15.2222 55.749 14.0355 54.9314C12.8447 54.1098 12.195 52.5174 11.5091 50.8315C10.9707 49.5084 10.4128 48.1413 9.53082 46.9926C8.66411 45.866 7.47603 44.9564 6.3269 44.0757C4.83136 42.9298 3.41791 41.8485 2.95742 40.5047C2.52754 39.253 2.97968 37.6345 3.45686 35.9225C3.8464 34.5224 4.24984 33.077 4.24984 31.6C4.24984 30.123 3.8464 28.6789 3.45686 27.2789C2.97829 25.5669 2.52754 23.9497 2.95742 22.698C3.41791 21.3543 4.82997 20.273 6.32551 19.1271C7.47464 18.2464 8.66411 17.3354 9.52943 16.2074C10.4142 15.0587 10.9707 13.6903 11.5105 12.3671C12.195 10.6813 12.8433 9.09021 14.0327 8.27132C15.2208 7.45106 17.028 7.35625 18.9409 7.25595C20.4322 7.17626 21.9778 7.0952 23.4038 6.65553C24.7714 6.23509 26.0346 5.45605 27.256 4.70311C28.8879 3.69874 30.4294 2.74795 31.9986 2.74795C33.5679 2.74795 35.1107 3.69874 36.744 4.70586C37.9655 5.46017 39.2273 6.23784 40.5948 6.65827C42.0208 7.09657 43.565 7.17764 45.0578 7.25733C46.9707 7.35763 48.7765 7.45518 49.9645 8.27407C51.1554 9.0957 51.8037 10.6868 52.4882 12.3699C53.0279 13.6944 53.583 15.0615 54.4678 16.2101C55.3345 17.3368 56.5226 18.2464 57.6704 19.1257C59.1673 20.273 60.5821 21.3557 61.0426 22.7022C61.4725 23.9511 61.019 25.5683 60.5418 27.2802C60.1509 28.6803 59.7474 30.1257 59.7474 31.6028C59.7474 33.0798 60.1495 34.5252 60.5418 35.9239C61.0205 37.6359 61.4725 39.253 61.0426 40.5047Z" fill="white"/>
<path fill-rule="evenodd" clip-rule="evenodd" d="M55.0792 51.8423C55.5686 50.6402 56.031 49.5043 56.6828 48.6551C57.3283 47.817 58.323 47.0545 59.3761 46.2493C61.1332 44.9042 62.9487 43.5137 63.6791 41.3854C64.3813 39.3366 63.7938 37.2328 63.2251 35.1962L63.2242 35.1929C62.8667 33.9138 62.53 32.7047 62.53 31.6014C62.53 30.4981 62.8667 29.289 63.2242 28.0098C63.7932 25.9736 64.3803 23.8673 63.6777 21.8201C62.9487 19.6904 61.1318 18.2986 59.3748 16.9548L59.3693 16.9507C58.3182 16.1457 57.3258 15.3857 56.6814 14.549C56.0248 13.6944 55.5601 12.554 55.0704 11.3463L55.0676 11.3394C54.2602 9.3575 53.4252 7.30805 51.5576 6.02075C49.7185 4.7512 47.423 4.62891 45.2068 4.51213C43.824 4.43931 42.5162 4.36923 41.4214 4.03261C40.3975 3.71797 39.3374 3.06533 38.2161 2.37423C36.4117 1.26131 34.3652 0 31.9988 0C29.6324 0 27.5859 1.26131 25.7816 2.3756L25.7571 2.39066C24.6449 3.07619 23.5955 3.72299 22.5776 4.03399C21.4814 4.37061 20.1736 4.44068 18.7908 4.5135L18.7837 4.51388C16.5683 4.63192 14.2786 4.75393 12.44 6.02212C10.5716 7.30996 9.73674 9.35922 8.92901 11.3419L8.92278 11.3571C8.43194 12.5608 7.9681 13.6983 7.31343 14.5504C6.67142 15.3867 5.68399 16.1442 4.6372 16.9472L4.62008 16.9603L4.61739 16.9624C2.86254 18.3069 1.0499 19.6956 0.321281 21.8214C-0.380875 23.8689 0.205147 25.9726 0.772454 28.0091L0.77342 28.0126C1.13096 29.2917 1.46763 30.4995 1.46763 31.6028C1.46763 32.7061 1.13096 33.9151 0.77342 35.1943C0.205812 37.2305 -0.381273 39.3368 0.321281 41.3868C1.05027 43.5137 2.86578 44.9056 4.62147 46.2493C5.6746 47.0545 6.66931 47.817 7.31343 48.6551C7.97147 49.5097 8.43613 50.6501 8.92722 51.8592C9.73541 53.843 10.5718 55.8961 12.4428 57.1875C14.2805 58.4543 16.5746 58.5752 18.7908 58.692C20.1736 58.7648 21.4814 58.8349 22.5762 59.1715C23.5982 59.4856 24.6548 60.1363 25.7724 60.8246L25.7899 60.8354C27.5929 61.9452 29.6358 63.2028 31.9988 63.2028C34.3641 63.2028 36.4101 61.9427 38.2159 60.8307L38.2369 60.8177C39.3512 60.1315 40.4035 59.4834 41.4242 59.1701C42.519 58.8335 43.8268 58.7635 45.2096 58.6906C47.4272 58.5738 49.7199 58.4529 51.5576 57.1861C53.4287 55.8966 54.2637 53.8455 55.0708 51.863L55.0792 51.8423ZM41.1303 58.2143C42.3485 57.8398 43.766 57.7652 45.0973 57.6952L45.157 57.692C47.4354 57.572 49.4254 57.4414 50.9901 56.3628C52.5784 55.2681 53.3196 53.5124 54.1484 51.4767L54.1824 51.393C54.649 50.2465 55.1547 49.0036 55.8895 48.0462L55.8905 48.0449C56.6207 47.0969 57.7106 46.2638 58.7182 45.4935L58.7683 45.4553M41.1303 58.2143C39.9862 58.5655 38.8409 59.2711 37.7767 59.9267L37.6973 59.9757C37.6973 59.9757 37.6972 59.9757 37.6973 59.9757C35.8451 61.1163 34.037 62.2028 31.9988 62.2028C29.9607 62.2028 28.1542 61.1165 26.3032 59.9771C26.3032 59.9771 26.3031 59.977 26.3032 59.9771L26.231 59.9326C25.1641 59.2754 24.0153 58.5676 22.8701 58.2157M18.8434 57.6934C18.8434 57.6934 18.8434 57.6934 18.8434 57.6934C16.5666 57.5734 14.5754 57.4428 13.0108 56.3645C11.4245 55.2696 10.6817 53.5154 9.85331 51.4819L9.82922 51.4226C9.35925 50.2653 8.85037 49.0121 8.10577 48.045C7.37679 47.0968 6.28684 46.2636 5.27975 45.4938L5.22925 45.4552C5.22939 45.4553 5.22911 45.4551 5.22925 45.4552C3.42342 44.0731 1.88147 42.8546 1.26727 41.0626C0.682384 39.356 1.15173 37.5613 1.73669 35.4628L1.75451 35.3991C2.09695 34.1743 2.46763 32.8486 2.46763 31.6028C2.46763 30.3582 2.09768 29.0351 1.75561 27.8117L1.73674 27.7442C1.73679 27.7444 1.73669 27.744 1.73674 27.7442C1.15174 25.6441 0.682496 23.8508 1.2672 22.1458C1.88145 20.3537 3.42153 19.1383 5.22825 17.7541C5.25483 17.7337 5.28197 17.7129 5.30868 17.6924C6.30616 16.9275 7.38316 16.1016 8.10639 15.1596M18.8434 5.51212C16.565 5.63352 14.5753 5.76409 13.0078 6.84529C11.4234 7.93736 10.682 9.68953 9.85331 11.7236C9.84206 11.7511 9.83067 11.7791 9.81938 11.8068C9.35136 12.955 8.84395 14.1996 8.10639 15.1596M18.8434 5.51212L18.9029 5.50899C20.2343 5.43894 21.6516 5.36438 22.871 4.98999M41.1275 4.98845C39.9782 4.63525 38.8241 3.92381 37.7519 3.26283L37.6914 3.22552C35.8428 2.08533 34.0355 1 31.9988 1C29.9622 1 28.1551 2.08511 26.307 3.22643C26.2779 3.24434 26.2481 3.26276 26.2189 3.28075C25.1566 3.93577 24.0131 4.64074 22.871 4.98999M45.1542 5.51074L45.0945 5.5076C43.7632 5.43757 42.3457 5.36295 41.1275 4.98845M45.1542 5.51074C45.1542 5.51074 45.1542 5.51074 45.1542 5.51074C47.4306 5.6307 49.4235 5.76268 50.9895 6.84372C52.5738 7.93572 53.3155 9.68922 54.1443 11.7236L54.165 11.7745C54.6347 12.9333 55.1439 14.1893 55.8884 15.1583L55.8891 15.1592C56.6145 16.1009 57.6954 16.9285 58.6962 17.6948L58.7667 17.7488C60.5741 19.131 62.1174 20.3495 62.7316 22.1439C63.3162 23.8473 62.8474 25.6424 62.2611 27.7407L62.2431 27.805C61.9007 29.0298 61.53 30.3556 61.53 31.6014C61.53 32.8472 61.9007 34.173 62.2431 35.3977L62.261 35.4619C62.8475 37.562 63.3178 39.3547 62.7333 41.0608M60.5418 35.9239C61.0205 37.6359 61.4725 39.253 61.0426 40.5047C60.5823 41.848 59.1684 42.9303 57.6721 44.0757L57.6653 44.0809C56.5191 44.9591 55.3333 45.8676 54.4664 46.9926C53.5858 48.1413 53.0293 49.507 52.4909 50.8301C51.8051 52.5174 51.1568 54.1098 49.9645 54.9314C48.7765 55.7503 46.9721 55.8451 45.0606 55.9454C43.5679 56.0237 42.0221 56.1048 40.5948 56.5445C39.2301 56.9663 37.9669 57.7426 36.7468 58.4955C35.1121 59.504 33.5693 60.4548 31.9986 60.4548C30.428 60.4548 28.8865 59.504 27.2519 58.4955C26.0332 57.744 24.7714 56.9663 23.4052 56.5445C21.9778 56.1062 20.4322 56.0237 18.9395 55.9454C17.028 55.8451 15.2222 55.749 14.0355 54.9314C12.8447 54.1098 12.195 52.5174 11.5091 50.8315C10.9707 49.5084 10.4128 48.1413 9.53082 46.9926C8.66597 45.8684 7.48112 44.9603 6.3343 44.0813L6.3193 44.0699C4.82658 42.9261 3.41713 41.8462 2.95742 40.5047C2.52809 39.2546 2.97853 37.6386 3.45503 35.9291L3.46053 35.9094C3.84892 34.5134 4.24984 33.0724 4.24984 31.6C4.24984 30.129 3.84966 28.6906 3.4616 27.2959L3.45686 27.2789C2.97829 25.5669 2.52754 23.9497 2.95742 22.698C3.41762 21.3551 4.8282 20.2743 6.32269 19.1292L6.33063 19.1232C7.47817 18.2437 8.66539 17.3337 9.52943 16.2074C10.4104 15.0637 10.9659 13.702 11.5035 12.3842L11.5105 12.3671C12.195 10.6813 12.8433 9.09021 14.0327 8.27132C15.2208 7.45106 17.028 7.35625 18.9409 7.25595L18.9595 7.25496C20.4451 7.17558 21.9838 7.09337 23.4038 6.65553C24.7701 6.23546 26.0323 5.45744 27.2528 4.70513L27.256 4.70311L27.2665 4.69668C28.8945 3.69468 30.4327 2.74795 31.9986 2.74795C33.5679 2.74795 35.1107 3.69874 36.744 4.70586C37.9655 5.46017 39.2273 6.23784 40.5948 6.65827C42.0154 7.09492 43.5534 7.17702 45.0409 7.25643L45.0578 7.25733C46.9707 7.35763 48.7765 7.45518 49.9645 8.27407C51.1554 9.0957 51.8037 10.6868 52.4882 12.3699L52.4961 12.3893C53.0334 13.7078 53.5874 15.0671 54.4678 16.2101C55.3333 17.3351 56.5191 18.2437 57.6653 19.1218L57.6779 19.1315C59.172 20.2766 60.5829 21.3579 61.0426 22.7022C61.471 23.9467 61.0222 25.5568 60.5469 27.2621L60.5418 27.2802C60.1509 28.6803 59.7474 30.1257 59.7474 31.6028C59.7474 33.0798 60.1495 34.5252 60.5418 35.9239ZM61.9888 22.3786C61.6856 21.492 61.0916 20.7542 60.4426 20.1226C59.8036 19.5007 59.039 18.9147 58.3123 18.3578L58.2787 18.332C57.1093 17.4361 56.0328 16.6044 55.2604 15.6004C54.4727 14.5778 53.9639 13.3413 53.4145 11.9932M53.4145 11.9932L53.4044 11.9683C53.0705 11.1472 52.7172 10.2785 52.2896 9.5118C51.8556 8.73369 51.3047 7.98378 50.5324 7.45097C49.7649 6.92197 48.8509 6.65982 47.9467 6.50973C47.046 6.36019 46.0624 6.30863 45.1225 6.25934L45.1111 6.25875C45.1112 6.25875 45.111 6.25874 45.1111 6.25875C43.5939 6.17775 42.1763 6.09818 40.8887 5.70243C39.6646 5.32609 38.5112 4.62184 37.2694 3.85502L37.2434 3.839C36.446 3.34727 35.6085 2.83081 34.7671 2.44163C33.9118 2.04595 32.984 1.74795 31.9986 1.74795C31.0133 1.74795 30.0859 2.04596 29.2311 2.44124C28.3947 2.82803 27.562 3.34057 26.7692 3.8285L26.7319 3.85149C25.4892 4.6175 24.3341 5.32332 23.11 5.69968C21.8227 6.09657 20.4036 6.17636 18.8875 6.25738L18.8568 6.25898C17.9234 6.30791 16.9467 6.35911 16.0519 6.50704C15.1478 6.65651 14.2334 6.91789 13.4655 7.44778C12.6933 7.97943 12.1426 8.72908 11.7088 9.50716C11.2803 10.2757 10.9265 11.1472 10.5918 11.9715L10.5846 11.9894C10.5844 11.9898 10.5843 11.9902 10.5841 11.9906C10.0348 13.337 9.525 14.5744 8.73722 15.5971L8.73599 15.5987C7.96536 16.6033 6.88823 17.4359 5.7173 18.3333C5.71734 18.3333 5.71727 18.3333 5.7173 18.3333L5.68786 18.3559C4.96044 18.9132 4.19521 19.4995 3.55587 20.1217C2.90793 20.7523 2.31494 21.4886 2.01165 22.3732C1.72097 23.2196 1.74851 24.1225 1.87802 24.9674C2.00636 25.8045 2.25338 26.6881 2.48667 27.5226L2.49345 27.5469C2.4934 27.5467 2.49351 27.5471 2.49345 27.5469C2.88977 28.9713 3.24984 30.283 3.24984 31.6C3.24984 32.9171 2.88986 34.2297 2.49358 35.654C2.49362 35.6539 2.49354 35.6542 2.49358 35.654L2.48275 35.6929C2.25136 36.5229 2.00635 37.4019 1.87857 38.2345C1.74892 39.0794 1.72087 39.9829 2.01165 40.8295C2.31502 41.7144 2.90856 42.4507 3.55677 43.0812C4.19517 43.7022 4.95902 44.2874 5.68504 44.8437L5.71859 44.8694C5.71855 44.8694 5.71863 44.8694 5.71859 44.8694C6.8892 45.7666 7.96538 46.598 8.73768 47.6017M61.9888 22.3786C62.2793 23.2241 62.2506 24.1265 62.1207 24.9698C61.9931 25.7982 61.7492 26.6731 61.5187 27.4997L61.5051 27.5487C61.1076 28.9724 60.7474 30.2858 60.7474 31.6028C60.7474 32.9197 61.1063 34.2335 61.5046 35.6538L61.5137 35.6862C61.7465 36.5187 61.993 37.4 62.1213 38.235C62.2512 39.0797 62.2792 39.9829 61.9884 40.8295C61.685 41.7145 61.091 42.4512 60.4423 43.082C59.8017 43.7049 59.035 44.2918 58.3065 44.8494L58.2785 44.8709C58.2784 44.8709 58.2787 44.8708 58.2785 44.8709C57.1096 45.7665 56.0327 46.5984 55.2589 47.6025C54.4747 48.626 53.9644 49.8622 53.4173 51.2067C53.4173 51.2068 53.4174 51.2066 53.4173 51.2067L53.4066 51.2332C53.0722 52.0558 52.7188 52.9253 52.291 53.6924C51.8567 54.4714 51.3053 55.2219 50.532 55.7548M40.8901 57.4999C42.1784 57.1032 43.5968 57.0236 45.113 56.9441L45.1441 56.9424C46.077 56.8935 47.0529 56.8423 47.9469 56.6945C48.8505 56.5452 49.7642 56.284 50.532 55.7548M40.8901 57.4999C39.6678 57.8779 38.5111 58.5818 37.272 59.3465L37.2486 59.3609C36.4498 59.8538 35.6111 60.3712 34.7685 60.761C33.9127 61.1569 32.9846 61.4548 31.9986 61.4548C31.0127 61.4548 30.0848 61.1568 29.2293 60.7609C28.3885 60.3718 27.5515 59.8554 26.754 59.3634L26.727 59.3467C26.7269 59.3467 26.727 59.3467 26.727 59.3467C25.488 58.5826 24.3342 57.878 23.1109 57.5002C21.8218 57.1045 20.4023 57.0236 18.8871 56.9441L18.8649 56.9429C17.929 56.8938 16.9495 56.8424 16.0525 56.694C15.1489 56.5445 14.2353 56.2834 13.4682 55.7549C12.6959 55.2221 12.1441 54.4715 11.7097 53.6928C11.281 52.9245 10.9267 52.0537 10.5917 51.2302L10.5828 51.2084C10.5828 51.2084 10.5829 51.2084 10.5828 51.2084C10.0356 49.8636 9.52369 48.6253 8.73768 47.6017M62.7333 41.0608C62.1177 42.8542 60.5756 44.0717 58.7683 45.4553Z" fill="white" fill-opacity="0.1"/>
<path d="M31.9988 10.9909C20.4922 10.9909 11.1309 20.2364 11.1309 31.6005C11.1309 42.9647 20.4922 52.2102 31.9988 52.2102C43.5054 52.2102 52.8667 42.9647 52.8667 31.6005C52.8667 20.2364 43.5054 10.9909 31.9988 10.9909ZM31.9988 49.4622C22.0267 49.4622 13.9133 41.4492 13.9133 31.6005C13.9133 21.7519 22.0267 13.7389 31.9988 13.7389C37.142 13.7389 41.7789 15.8809 45.076 19.2966L31.8179 37.723L24.6352 30.6291C24.0912 30.0919 23.212 30.0919 22.668 30.6291C22.1241 31.1664 22.1241 32.0347 22.668 32.5719L31.0152 40.8158C31.2768 41.0755 31.6315 41.2184 31.9988 41.2184C32.0364 41.2184 32.0767 41.217 32.1157 41.2129C32.5233 41.1799 32.8961 40.9697 33.1326 40.6399L46.9013 21.5032C48.9046 24.3776 50.0843 27.8537 50.0843 31.6005C50.0843 41.4492 41.9709 49.4622 31.9988 49.4622Z" fill="white"/>
<path fill-rule="evenodd" clip-rule="evenodd" d="M46.3754 19.2029L31.9469 39.2559L23.9325 31.3406C23.778 31.1881 23.5252 31.1881 23.3707 31.3406C23.2232 31.4864 23.2232 31.7147 23.3707 31.8605L31.7198 40.1062C31.7901 40.1759 31.8899 40.2184 31.9988 40.2184C32.0056 40.2184 32.0103 40.2182 32.013 40.2181L32.0227 40.2171L32.035 40.2161C32.1519 40.2067 32.2561 40.1462 32.32 40.0571L32.3209 40.0559L46.9143 19.7729L47.7217 20.9314C49.8366 23.9658 51.0843 27.6401 51.0843 31.6005C51.0843 42.0132 42.5114 50.4622 31.9988 50.4622C21.4862 50.4622 12.9133 42.0132 12.9133 31.6005C12.9133 21.1879 21.4862 12.7389 31.9988 12.7389C37.4256 12.7389 42.3186 15.0001 45.7955 18.6021L46.3754 19.2029ZM31.9988 11.9909C21.0327 11.9909 12.1309 20.8004 12.1309 31.6005C12.1309 42.4007 21.0327 51.2102 31.9988 51.2102C42.9649 51.2102 51.8667 42.4007 51.8667 31.6005C51.8667 20.8004 42.9649 11.9909 31.9988 11.9909ZM47.4877 22.4004C49.1328 25.0889 50.0843 28.2356 50.0843 31.6005C50.0843 41.4492 41.9709 49.4622 31.9988 49.4622C22.0267 49.4622 13.9133 41.4492 13.9133 31.6005C13.9133 21.7519 22.0267 13.7389 31.9988 13.7389C37.142 13.7389 41.7789 15.8809 45.076 19.2966L31.8179 37.723L24.6352 30.6291C24.0912 30.0919 23.212 30.0919 22.668 30.6291C22.1241 31.1664 22.1241 32.0347 22.668 32.5719L31.0152 40.8158C31.2768 41.0755 31.6315 41.2184 31.9988 41.2184C32.0364 41.2184 32.0767 41.217 32.1157 41.2129C32.5233 41.1799 32.8961 40.9697 33.1326 40.6399L46.9013 21.5032C47.1054 21.7961 47.3011 22.0953 47.4877 22.4004ZM11.1309 31.6005C11.1309 20.2364 20.4922 10.9909 31.9988 10.9909C43.5054 10.9909 52.8667 20.2364 52.8667 31.6005C52.8667 42.9647 43.5054 52.2102 31.9988 52.2102C20.4922 52.2102 11.1309 42.9647 11.1309 31.6005Z" fill="white" fill-opacity="0.1"/>
</svg>
