<svg width="67" height="66" viewBox="0 0 67 66" fill="none" xmlns="http://www.w3.org/2000/svg">
<path d="M66.1878 36.6958C65.8135 35.362 65.4611 34.1012 65.4611 32.9508C65.4611 31.8004 65.8135 30.5397 66.1878 29.2059C66.7835 27.0827 67.3981 24.8865 66.6626 22.7518C65.8995 20.5312 63.9974 19.08 62.158 17.6788C61.0555 16.8379 60.0141 16.0442 59.3383 15.1703C58.6509 14.2792 58.1645 13.0901 57.6518 11.8308C56.8056 9.76204 55.9318 7.62167 53.9744 6.27785C52.049 4.95408 49.6459 4.82658 47.3259 4.7048C45.8782 4.62887 44.5092 4.55581 43.363 4.20481C42.2911 3.87674 41.1813 3.19623 40.0074 2.47561C38.1185 1.31517 35.9761 0 33.4988 0C31.0214 0 28.879 1.31517 26.9901 2.47704C25.8162 3.19766 24.7093 3.8796 23.636 4.20624C22.4883 4.55724 21.1193 4.63031 19.6716 4.70624C17.3501 4.82944 14.9499 4.95552 13.0231 6.27928C11.0657 7.6231 10.1919 9.76204 9.34568 11.8308C8.83011 13.0901 8.34367 14.2806 7.65625 15.1717C6.98047 16.0485 5.93914 16.8422 4.83664 17.6846C2.99866 19.0871 1.0995 20.5355 0.336341 22.7533C-0.399145 24.8893 0.215459 27.0841 0.809674 29.2088C1.18397 30.5425 1.53642 31.8018 1.53642 32.9523C1.53642 34.1027 1.18397 35.3634 0.809674 36.6972C0.215459 38.8204 -0.399145 41.0166 0.336341 43.1541C1.0995 45.3718 3.00011 46.8231 4.8381 48.2242C5.9406 49.0638 6.98193 49.8589 7.65625 50.7328C8.34513 51.6239 8.83157 52.813 9.34568 54.0737C10.1919 56.1425 11.0672 58.2828 13.026 59.6295C14.9499 60.9504 17.3516 61.0765 19.6716 61.1983C21.1193 61.2742 22.4883 61.3473 23.6345 61.6983C24.7064 62.0263 25.8147 62.7068 26.9872 63.426C28.8776 64.585 31.0199 65.9016 33.4988 65.9016C35.9776 65.9016 38.1214 64.585 40.0133 63.4246C41.1857 62.7054 42.2925 62.0249 43.3659 61.6968C44.5121 61.3458 45.8811 61.2728 47.3288 61.1968C49.6503 61.0751 52.0505 60.949 53.9744 59.6281C55.9362 58.2814 56.81 56.1382 57.6562 54.068C58.1703 52.8101 58.6553 51.621 59.3398 50.7328C60.0156 49.8589 61.0569 49.0638 62.1594 48.2242C63.9988 46.8217 65.8995 45.3718 66.6641 43.1527C67.3996 41.0152 66.7835 38.8204 66.1878 36.6958ZM63.904 42.2344C63.4219 43.6355 61.9408 44.7644 60.3737 45.9592C59.1721 46.8761 57.9284 47.8245 57.0196 48.9993C56.0977 50.197 55.5151 51.621 54.9515 53.0007C54.2334 54.76 53.5548 56.4204 52.3066 57.2771C51.0629 58.131 49.1739 58.2298 47.1728 58.3344C45.6101 58.4161 43.992 58.5006 42.4977 58.959C41.069 59.3989 39.7466 60.2083 38.4693 60.9934C36.758 62.045 35.1429 63.0364 33.4986 63.0364C31.8543 63.0364 30.2406 62.045 28.5293 60.9934C27.2535 60.2097 25.9325 59.3989 24.5023 58.959C23.0081 58.502 21.39 58.4161 19.8273 58.3344C17.8262 58.2298 15.9357 58.1295 14.6934 57.2771C13.4467 56.4204 12.7666 54.76 12.0486 53.0021C11.485 51.6225 10.9009 50.197 9.97758 48.9993C9.07024 47.8245 7.82647 46.8761 6.62347 45.9578C5.05783 44.763 3.57812 43.6355 3.09605 42.2344C2.64602 40.9292 3.11935 39.2416 3.6189 37.4565C4.0267 35.9966 4.44906 34.4895 4.44906 32.9494C4.44906 31.4093 4.0267 29.9036 3.6189 28.4437C3.1179 26.6586 2.64602 24.9724 3.09605 23.6673C3.57812 22.2662 5.05638 21.1387 6.62202 19.9438C7.82501 19.0255 9.07024 18.0757 9.97612 16.8995C10.9024 15.7018 11.485 14.2749 12.05 12.8952C12.7666 11.1374 13.4453 9.47838 14.6905 8.62452C15.9343 7.76923 17.8262 7.67038 19.8287 7.56579C21.39 7.4827 23.0081 7.39818 24.5009 6.93973C25.9325 6.50134 27.2549 5.68903 28.5337 4.90394C30.242 3.85668 31.8557 2.86529 33.4986 2.86529C35.1414 2.86529 36.7566 3.85668 38.4664 4.90681C39.7451 5.69333 41.0661 6.50421 42.4977 6.9426C43.9905 7.39961 45.6071 7.48413 47.1699 7.56723C49.1724 7.67181 51.0629 7.77353 52.3066 8.62738C53.5533 9.48411 54.232 11.1431 54.9485 12.8981C55.5136 14.2792 56.0947 15.7046 57.021 16.9023C57.9284 18.0771 59.1721 19.0255 60.3737 19.9424C61.9408 21.1387 63.4219 22.2676 63.904 23.6716C64.354 24.9739 63.8792 26.6601 63.3797 28.4452C62.9704 29.905 62.5481 31.4122 62.5481 32.9523C62.5481 34.4923 62.969 35.9995 63.3797 37.4579C63.8809 39.243 64.354 40.9292 63.904 42.2344Z" fill="white"/>
<path d="M66.1899 22.9147L66.1898 22.9143C65.4843 20.8616 63.7198 19.4971 61.855 18.0766L61.8547 18.0764L61.8127 18.0443C60.7404 17.2264 59.6578 16.4008 58.9428 15.4761L58.9425 15.4757C58.2084 14.5242 57.6988 13.2723 57.1953 12.0355L57.189 12.0201C56.3327 9.92638 55.5058 7.93571 53.6914 6.69006L53.6911 6.68986C51.9021 5.45982 49.6499 5.32747 47.2997 5.20412L47.2761 5.20288C45.8533 5.12826 44.4266 5.05344 43.2166 4.6829C42.0811 4.33534 40.9236 3.62475 39.7754 2.91985L39.7459 2.90172L39.7457 2.90164C37.8348 1.72773 35.8119 0.5 33.4988 0.5C31.1857 0.5 29.1627 1.7277 27.252 2.90293L27.2516 2.90316L27.1912 2.94027C26.0543 3.63833 24.9093 4.34132 23.7819 4.68448C22.5705 5.0549 21.144 5.12971 19.7213 5.20432L19.6981 5.20553L66.1899 22.9147ZM66.1899 22.9147C66.8659 24.8768 66.3108 26.9165 65.7064 29.0708L65.6985 29.0989C65.3319 30.4052 64.9611 31.7267 64.9611 32.9508C64.9611 34.175 65.3319 35.4964 65.6985 36.8027L65.7064 36.8307C65.7064 36.8308 65.7064 36.8308 65.7064 36.8308C66.3109 38.9869 66.8674 41.025 66.1913 42.99C65.4843 45.0416 63.7212 46.4046 61.8562 47.8266L61.8377 47.8408C60.7571 48.6636 59.6644 49.4956 58.9443 50.4269L58.9438 50.4276C58.2199 51.3669 57.7143 52.6041 57.2147 53.8267L57.1934 53.8788C56.337 55.9739 55.5101 57.9674 53.6914 59.2159L53.6914 59.2159M66.1899 22.9147L53.6914 59.2159M13.3062 6.69139L13.3061 6.69149C11.4916 7.93718 10.6648 9.92653 9.80847 12.0201L9.8084 12.0202L9.78734 12.0717C9.28616 13.296 8.77902 14.5349 8.05214 15.4771C7.3395 16.4016 6.26163 17.2251 5.19329 18.0413L5.14021 18.0819L5.13996 18.0821C3.27619 19.5043 1.51462 20.8658 0.809131 22.916L0.809102 22.916C0.132978 24.8797 0.688142 26.9179 1.29115 29.0739C1.29116 29.074 1.29118 29.074 1.2912 29.0741L1.30024 29.1063C1.66639 30.411 2.03642 31.7295 2.03642 32.9523C2.03642 34.1764 1.66556 35.4979 1.29897 36.8042L1.29117 36.8319C0.688205 38.9864 0.13293 41.0262 0.809135 42.9914C1.51459 45.0415 3.27767 46.406 5.14101 47.8264C5.14104 47.8265 5.14108 47.8265 5.14111 47.8265C5.14115 47.8265 5.14118 47.8266 5.14122 47.8266L5.16015 47.841C6.24049 48.6637 7.33333 49.4958 8.0521 50.4274C8.78584 51.3766 9.29488 52.625 9.79842 53.8598L9.80847 53.8844C10.6646 55.9776 11.493 57.9687 13.309 59.2173L13.3062 6.69139ZM13.3062 6.69139C15.0968 5.46128 17.3459 5.33037 19.6978 5.20555L13.3062 6.69139ZM53.6914 59.2159C51.9038 60.4432 49.6545 60.5742 47.3026 60.6975L47.2789 60.6988C45.8563 60.7734 44.4297 60.8482 43.2198 61.2187M53.6914 59.2159L13.3093 59.2175C15.0968 60.4446 17.3474 60.5756 19.6978 60.699L19.7214 60.7002C21.1441 60.7748 22.5708 60.8496 23.7808 61.2202C24.9119 61.5663 26.0636 62.2728 27.2056 62.9734L27.2485 62.9998C29.1614 64.1726 31.1841 65.4016 33.4988 65.4016C35.8134 65.4016 37.8376 64.1725 39.7518 62.9984L39.8034 62.9668C40.9423 62.268 42.0899 61.564 43.2198 61.2187M24.3554 59.437C22.9301 59.0012 21.375 58.916 19.8012 58.8337L19.7952 58.8334C18.8031 58.7816 17.8033 58.7293 16.8945 58.5796C15.9842 58.4295 15.1185 58.1752 14.4105 57.6894L14.4102 57.6892C13.6984 57.2 13.171 56.4975 12.7365 55.7219C12.3041 54.95 11.9437 54.0677 11.5882 53.1973L11.5857 53.1912C11.5857 53.1912 11.5857 53.1912 11.5857 53.1912C11.0177 51.8008 10.4569 50.4401 9.58187 49.3049L24.3554 59.437ZM24.3554 59.437C25.7145 59.8549 26.9815 60.6295 28.2676 61.4194L28.2814 61.4279C29.1267 61.9473 29.9794 62.4713 30.8298 62.8633C31.6874 63.2586 32.5765 63.5364 33.4986 63.5364C34.4206 63.5364 35.3101 63.2586 36.168 62.8633C37.0202 62.4707 37.8747 61.9456 38.7215 61.4253L38.7311 61.4194L38.7311 61.4194M24.3554 59.437L38.7311 61.4194M11.5872 12.7061C11.0173 14.0974 10.4582 15.4588 9.58061 16.5936L9.57999 16.5944C8.72157 17.709 7.5326 18.6197 6.31863 19.5464L6.30154 19.5594C5.53012 20.1482 4.7507 20.743 4.10468 21.3692C3.45398 22 2.90115 22.6971 2.62336 23.5043L11.5872 12.7061ZM11.5872 12.7061C11.5873 12.7059 11.5873 12.7058 11.5874 12.7057L11.5872 12.7061ZM64.3767 42.3973C64.6399 41.634 64.6228 40.7928 64.4927 39.9498C64.3633 39.1116 64.1127 38.219 63.8656 37.3388L63.8611 37.3228L63.861 37.3224C63.4472 35.8531 63.0481 34.412 63.0481 32.9523C63.0481 31.4925 63.4486 30.0518 63.8611 28.5801L63.8612 28.5799L63.8712 28.5442C64.1156 27.6708 64.3635 26.7852 64.4921 25.9537C64.6224 25.1114 64.64 24.2706 64.3766 23.5083C64.0987 22.6998 63.5452 22.0016 62.8937 21.3701C62.2481 20.7442 61.4694 20.1498 60.6989 19.5616L60.6771 19.545L60.677 19.5449C59.4646 18.6197 58.2768 17.7102 57.4167 16.5967L57.4165 16.5965C56.5389 15.4617 55.9813 14.1017 55.4113 12.7088L55.4076 12.6996C55.0532 11.8317 54.694 10.9518 54.2626 10.1816C53.8287 9.40663 53.3016 8.70446 52.5898 8.21531L52.5896 8.21517C51.8811 7.72877 51.0151 7.47361 50.1044 7.32303C49.1934 7.17241 48.1912 7.11988 47.1964 7.06793L60.677 46.3567L60.6928 46.3446C61.4654 45.7556 62.2463 45.1602 62.8936 44.5333C63.5451 43.9023 64.0988 43.2047 64.3767 42.3973ZM64.3767 42.3973L63.9049 42.2347L64.3768 42.397C64.3768 42.3971 64.3767 42.3972 64.3767 42.3973ZM38.7311 61.4194C40.0179 60.6284 41.2867 59.8551 42.6444 59.4371L38.7311 61.4194ZM43.2198 61.2187L43.3659 61.6968L43.2195 61.2187C43.2196 61.2187 43.2197 61.2187 43.2198 61.2187ZM6.32014 46.3553C6.32012 46.3553 6.3201 46.3552 6.32008 46.3552L6.29821 46.3385C5.52842 45.7511 4.75052 45.1574 4.10552 44.5326C3.45449 43.9018 2.90119 43.2046 2.62336 42.3973C2.36015 41.634 2.3773 40.7925 2.50722 39.9493C2.63602 39.1133 2.88509 38.2233 3.13064 37.3459L3.13734 37.322C3.13736 37.3219 3.13738 37.3218 3.1374 37.3217C3.5486 35.8497 3.94906 34.4092 3.94906 32.9494C3.94906 31.4896 3.54862 30.0506 3.1374 28.5784C3.13738 28.5784 3.13736 28.5783 3.13734 28.5782L3.13492 28.5696C2.88722 27.6871 2.63603 26.7921 2.50666 25.9516C2.37691 25.1086 2.36021 24.2676 2.62333 23.5044C2.6233 23.5045 2.62328 23.5045 2.62325 23.5046L6.32014 46.3553ZM6.32014 46.3553C7.53394 47.2818 8.72159 48.1912 9.5816 49.3046L6.32014 46.3553ZM47.1963 7.06793C45.6214 6.98419 44.068 6.90041 42.6441 6.4645C41.284 6.04802 40.0171 5.27363 38.7283 4.48092L38.7281 4.48075L38.7161 4.4734C37.8709 3.95429 37.0175 3.43018 36.1666 3.03813C35.3091 2.64305 34.4199 2.36529 33.4986 2.36529C32.5772 2.36529 31.6884 2.64306 30.8315 3.03775C29.9857 3.42734 29.1375 3.94732 28.2975 4.46223L28.2724 4.47766L28.2721 4.47784C26.9828 5.26942 25.7146 6.04515 24.3545 6.46164L24.3541 6.46176C22.9304 6.89897 21.3758 6.98275 19.8022 7.0665L19.7861 7.06734C18.797 7.11899 17.8002 7.17105 16.8938 7.32029C15.9828 7.4703 15.1162 7.72505 14.4074 8.2124C14.4073 8.21244 14.4073 8.21249 14.4072 8.21253L14.6905 8.62452L47.1963 7.06793ZM57.4158 49.3043C58.2773 48.191 59.4649 47.2817 60.6768 46.3568L52.3066 57.2771L52.5896 57.6894C52.5896 57.6893 52.5896 57.6893 52.5896 57.6893C53.3023 57.2001 53.8298 56.4975 54.2641 55.7216C54.6956 54.9509 55.055 54.0701 55.4099 53.2007L55.4143 53.1898C55.9825 51.7991 56.5419 50.4396 57.4158 49.3043Z" stroke="white" stroke-opacity="0.1"/>
<path d="M33.5012 10.0081C20.6182 10.0081 10.1748 20.2816 10.1748 32.9538C10.1748 45.6266 20.6182 55.8996 33.5012 55.8996C46.3836 55.8996 56.8276 45.6266 56.8276 32.9538C56.8135 20.2869 46.3782 10.022 33.5012 10.0081ZM33.5012 53.7143C21.845 53.7143 12.3964 44.4198 12.3964 32.9538C12.3964 21.4884 21.845 12.1934 33.5012 12.1934C45.1568 12.1934 54.606 21.4884 54.606 32.9538C54.593 44.4144 45.1514 53.702 33.5012 53.7143Z" fill="white"/>
<path d="M33.5012 54.2137H33.5017C45.4196 54.2012 55.0921 44.6981 55.1054 32.9544V32.9538C55.1054 21.2049 45.4248 11.694 33.5012 11.694C21.577 11.694 11.8969 21.2049 11.8969 32.9538C11.8969 44.7033 21.577 54.2137 33.5012 54.2137ZM10.6742 32.9538C10.6742 20.5652 20.8861 10.5077 33.5009 10.5075C46.1102 10.5213 56.3144 20.5707 56.3281 32.9544C56.3278 45.3434 46.1154 55.4002 33.5012 55.4002C20.8863 55.4002 10.6742 45.3431 10.6742 32.9538Z" stroke="white" stroke-opacity="0.1" stroke-width="0.998873"/>
<path d="M22.7183 42.0151L42.7123 22.3474L44.2835 23.8924L24.289 43.5608L22.7183 42.0151Z" fill="white"/>
<path d="M24.289 42.8601L23.4304 42.0152L42.7123 23.0479L43.5713 23.8925L24.289 42.8601Z" stroke="white" stroke-opacity="0.1" stroke-width="0.998873"/>
<path d="M40.1658 35.1392C37.7115 35.1392 35.7227 37.0961 35.7227 39.5098C35.7227 41.9239 37.7115 43.8804 40.1658 43.8804C42.6195 43.8804 44.6089 41.9239 44.6089 39.5098C44.6089 37.0961 42.6195 35.1392 40.1658 35.1392ZM40.1658 41.6951C38.9389 41.6951 37.9442 40.7166 37.9442 39.5098C37.9442 38.3029 38.9389 37.3245 40.1658 37.3245C41.3927 37.3245 42.3874 38.3029 42.3874 39.5098C42.3874 40.7166 41.3927 41.6951 40.1658 41.6951Z" fill="white"/>
<path d="M36.2221 39.5098C36.2221 37.3796 37.9796 35.6386 40.1658 35.6386C42.3515 35.6386 44.1095 37.3797 44.1095 39.5098C44.1095 41.6404 42.3515 43.3809 40.1658 43.3809C37.9796 43.3809 36.2221 41.6404 36.2221 39.5098ZM37.4448 39.5098C37.4448 41.0001 38.6709 42.1945 40.1658 42.1945C41.6607 42.1945 42.8868 41.0001 42.8868 39.5098C42.8868 38.0194 41.6607 36.825 40.1658 36.825C38.6709 36.825 37.4448 38.0194 37.4448 39.5098Z" stroke="white" stroke-opacity="0.1" stroke-width="0.998873"/>
<path d="M26.8367 30.7685C29.2904 30.7685 31.2798 28.812 31.2798 26.3979C31.2798 23.9842 29.2904 22.0273 26.8367 22.0273C24.3824 22.0273 22.3936 23.9842 22.3936 26.3979C22.3936 28.812 24.3824 30.7685 26.8367 30.7685ZM26.8367 24.2126C28.0636 24.2126 29.0583 25.191 29.0583 26.3979C29.0583 27.6047 28.0636 28.5832 26.8367 28.5832C25.6098 28.5832 24.6151 27.6047 24.6151 26.3979C24.6151 25.191 25.6098 24.2126 26.8367 24.2126Z" fill="white"/>
<path d="M30.7804 26.3979C30.7804 28.5284 29.0224 30.269 26.8367 30.269C24.6505 30.269 22.893 28.5285 22.893 26.3979C22.893 24.2677 24.6505 22.5267 26.8367 22.5267C29.0224 22.5267 30.7804 24.2678 30.7804 26.3979ZM29.5577 26.3979C29.5577 24.9075 28.3316 23.7131 26.8367 23.7131C25.3418 23.7131 24.1157 24.9075 24.1157 26.3979C24.1157 27.8882 25.3418 29.0826 26.8367 29.0826C28.3316 29.0826 29.5577 27.8882 29.5577 26.3979Z" stroke="white" stroke-opacity="0.1" stroke-width="0.998873"/>
</svg>
